<svg width="400" height="400" viewBox="0 0 400 400" fill="none" xmlns="http://www.w3.org/2000/svg">
<rect width="400" height="400" rx="80" fill="white"/>
<rect x="41" y="37" width="317" height="317" rx="72" stroke="#2B2B2B" stroke-width="16" stroke-linejoin="round"/>
<path d="M303.27 128.132L294.734 127.795C293.611 127.795 292.601 127.87 291.702 128.02V264.919H301.697C305.59 264.919 308.66 265.78 310.906 267.502C313.227 269.224 314.388 271.433 314.388 274.128C314.388 276.823 313.414 278.994 311.468 280.642C309.521 282.214 306.863 283 303.494 283L281.146 282.326L260.145 283C254.08 283 250.337 281.203 248.914 277.609C248.465 276.561 248.24 275.101 248.24 273.229C248.24 271.358 249.251 269.523 251.272 267.727C253.369 265.855 257.037 264.919 262.278 264.919H271.6V160.925C271.6 152.165 271.899 144.341 272.498 137.453L211.18 257.058C208.26 263.946 204.629 267.39 200.286 267.39C197.216 267.39 194.896 266.678 193.323 265.256C191.826 263.833 190.066 261.138 188.045 257.17L126.053 139.025C126.727 146.962 127.063 156.844 127.063 168.674V264.919H136.16C141.326 264.919 144.957 265.855 147.054 267.727C149.225 269.523 150.311 271.358 150.311 273.229C150.311 279.743 146.305 283 138.294 283L117.293 282.326L94.832 283C91.5378 283 88.9173 282.214 86.9707 280.642C85.099 278.994 84.1631 276.823 84.1631 274.128C84.1631 271.433 85.2861 269.224 87.5322 267.502C89.7783 265.78 92.848 264.919 96.7412 264.919H106.736V128.244L104.041 128.132L95.0566 128.469C93.2598 128.469 91.4255 128.319 89.5537 128.02C84.6123 127.271 82.1416 124.351 82.1416 119.26C82.1416 112.147 86.7461 108.591 95.9551 108.591H99.3242C115.271 108.591 126.202 111.099 132.117 116.115C135.112 118.586 138.406 123.303 142 130.266L199.5 238.303L252.845 134.309C258.46 123.078 265.685 115.816 274.52 112.521C280.509 110.275 286.199 109.077 291.59 108.928C297.055 108.703 301.473 108.591 304.842 108.591C312.479 108.591 316.297 111.997 316.297 118.811C316.297 123.977 314.126 126.896 309.783 127.57C307.537 127.945 305.366 128.132 303.27 128.132Z" fill="black"/>
</svg>
